PathFileType  4	(X/Y/Z) C:\Users\antoi\Documents\MyRepositories\mobilecap\ResultsAnalysis
DataRate	CameraRate	NumFrames	NumMarkers	Units	OrigDataRate	OrigDataStartFrame	OrigNumFrames
100.0	100.0	4	51	mm	100.0	204	271
Frame#	Time	r_knee			r_shank_antsup			r_ankle			r_calc			r_5meta			r_toe			L_knee			L_shank_antsup			L_ankle			L_calc			L_5meta			L_toe			r_sh2			r_sh3			r_sh4			L_sh2			L_sh3			r_thigh1			r_thigh2			r_thigh3			r_thigh4			r_thigh5			L_thigh1			L_thigh2			L_thigh3			L_thigh4			r.ASIS			r.PSIS			L.ASIS			L.PSIS			C7			R_Shoulder			L_Shoulder			R_Sternum			L_Sternum			R_humerus			R_elbow_med			R_elbow_lat			R_forearm			R_wrist_radius			R_wrist_ulna			L_humerus			L_elbow_med			L_elbow_lat			L_forearm			L_wrist_radius			L_wrist_ulna			R_HJC			L_HJC			R_HJC_reg			L_HJC_reg			
		X1	Y1	Z1	X2	Y2	Z2	X3	Y3	Z3	X4	Y4	Z4	X5	Y5	Z5	X6	Y6	Z6	X7	Y7	Z7	X8	Y8	Z8	X9	Y9	Z9	X10	Y10	Z10	X11	Y11	Z11	X12	Y12	Z12	X13	Y13	Z13	X14	Y14	Z14	X15	Y15	Z15	X16	Y16	Z16	X17	Y17	Z17	X18	Y18	Z18	X19	Y19	Z19	X20	Y20	Z20	X21	Y21	Z21	X22	Y22	Z22	X23	Y23	Z23	X24	Y24	Z24	X25	Y25	Z25	X26	Y26	Z26	X27	Y27	Z27	X28	Y28	Z28	X29	Y29	Z29	X30	Y30	Z30	X31	Y31	Z31	X32	Y32	Z32	X33	Y33	Z33	X34	Y34	Z34	X35	Y35	Z35	X36	Y36	Z36	X37	Y37	Z37	X38	Y38	Z38	X39	Y39	Z39	X40	Y40	Z40	X41	Y41	Z41	X42	Y42	Z42	X43	Y43	Z43	X44	Y44	Z44	X45	Y45	Z45	X46	Y46	Z46	X47	Y47	Z47	X48	Y48	Z48	X49	Y49	Z49	X50	Y50	Z50	X51	Y51	Z51	

204	2.03000000	-128.39840	486.11086	-424.04278	-92.10347	418.64760	-419.65463	-237.72693	122.48495	-428.98031	-299.32824	109.88867	-476.20589	-109.15615	53.08218	-440.33223	-158.21922	46.82718	-392.55137	-62.87089	489.92664	-763.79967	-37.93129	398.32668	-754.53555	-196.77567	141.57566	-787.18778	-266.29052	127.43465	-745.00247	-127.75192	52.83590	-818.81448	-74.00437	49.04102	-767.46719	-134.08462	314.04412	-410.04572	-157.87294	449.87842	-393.80381	-209.64172	344.29038	-391.07005	-101.43387	440.68817	-803.15242	-144.86678	326.22137	-818.34642	-194.40977	732.30896	-400.40922	-141.21532	632.80394	-401.09686	-191.09911	583.72203	-409.26225	-291.77633	684.28756	-432.07838	-236.48360	581.22683	-440.23350	-160.65681	750.42536	-800.29869	-89.28767	633.53840	-783.34145	-259.15282	696.24209	-793.30280	-188.55456	577.81731	-761.24478	-176.81983	890.47451	-495.32700	-358.55331	973.63503	-585.08376	-162.53070	881.91295	-713.72732	-352.54608	966.28410	-667.20139	-72.37180	1333.70659	-628.56759	-17.23493	1332.41809	-518.54704	-1.76251	1322.96216	-724.27334	42.43299	1262.30141	-586.56465	46.35715	1267.13101	-640.99261	52.51216	1324.65052	-438.73868	180.15921	1204.42654	-304.39008	165.14150	1274.85876	-280.01087	181.83701	1340.60738	-349.91062	223.05634	1405.48985	-460.34480	257.53990	1409.53344	-443.16521	55.77535	1329.51333	-798.34570	230.87042	1237.38784	-912.52152	200.92982	1304.15787	-932.55662	233.52312	1372.84741	-856.68842	266.16798	1427.97787	-753.28664	304.49921	1425.85307	-766.71310	-277.75105	829.17715	-505.19486	-262.02446	821.46036	-711.96234	-261.84768	849.75503	-527.89683	-251.34128	836.89944	-671.50389	
205	2.04000000	-146.72484	498.07782	-423.00999	-111.06392	432.34418	-417.28529	-235.37795	126.37408	-426.43834	-295.93048	116.68003	-474.35245	-107.86410	52.98769	-438.71734	-157.25472	47.10465	-391.52876	-75.30403	500.26219	-766.39181	-48.90910	410.00646	-758.51426	-194.42481	145.08213	-789.85008	-262.52331	132.93654	-747.14136	-126.61530	52.91117	-819.77607	-72.67262	48.69008	-768.71334	-146.66577	325.18709	-407.76322	-179.51114	458.57783	-393.29534	-224.20760	351.23277	-390.46297	-114.52062	450.15598	-807.77543	-152.80594	332.58918	-820.68665	-196.26937	749.69723	-400.17001	-151.05415	646.38106	-401.22927	-202.72147	600.91669	-408.40222	-296.50573	707.86036	-431.33429	-248.43881	600.72806	-439.25099	-157.99747	768.55750	-799.06867	-93.25222	647.59334	-784.26016	-258.85885	719.30317	-794.17885	-195.62212	596.25106	-764.08526	-170.86384	913.62757	-493.62685	-352.48625	993.89353	-584.93352	-154.46739	904.27901	-712.48941	-345.92317	986.57786	-666.95092	-78.58086	1363.51181	-629.32793	-25.72566	1364.82761	-520.28177	-8.97168	1355.53906	-724.09649	38.32280	1297.32520	-586.13063	42.42300	1302.38135	-642.43616	44.25567	1361.28803	-441.13940	177.04225	1245.50611	-306.04742	161.01395	1316.16950	-283.19592	176.23770	1381.09434	-354.96882	214.10570	1443.47370	-467.77007	248.51389	1448.98996	-450.79112	47.89547	1365.19281	-798.45071	223.86929	1276.49647	-915.48594	192.79387	1343.51474	-933.86312	224.92079	1411.53608	-857.45226	256.92670	1465.26646	-752.78758	295.16724	1464.02224	-766.32488	-270.59799	850.85351	-504.15243	-253.35041	842.69605	-710.78129	-254.80850	871.13394	-526.69541	-243.28909	858.29320	-670.65107	
206	2.05000000	-167.87407	511.85096	-423.42923	-132.99127	448.32694	-416.45410	-230.91894	132.19507	-422.83840	-290.42936	126.46756	-470.96360	-105.68111	52.46465	-436.89292	-155.20923	47.54125	-389.74168	-90.05304	512.34983	-769.20819	-62.31882	423.31661	-761.92976	-191.05938	149.66608	-792.90937	-257.60126	140.05080	-749.93353	-124.81869	53.40403	-821.17144	-70.85400	48.48311	-770.12130	-160.97755	338.93442	-405.83444	-203.23764	470.04889	-394.11007	-240.44129	360.06114	-390.57329	-130.31072	460.33416	-811.42267	-162.12227	340.14865	-822.98892	-198.84443	768.59639	-400.41303	-162.92778	661.07677	-402.96111	-215.47762	620.31210	-407.91527	-301.64696	733.24651	-430.80975	-261.52269	622.75975	-438.21660	-155.57845	787.70131	-797.16551	-98.12368	662.78975	-784.37853	-258.69566	743.78730	-795.10015	-203.65280	616.34360	-766.92725	-164.11829	938.11458	-491.90298	-345.58375	1014.73401	-584.71715	-146.00175	927.63224	-710.86251	-338.56940	1007.48814	-666.45197	-85.15373	1393.61192	-629.63850	-34.51650	1396.65483	-521.73638	-16.61398	1387.91528	-724.51871	33.88638	1331.61264	-586.60974	37.37977	1336.93127	-643.79083	35.43297	1396.78129	-442.87839	171.98400	1283.35617	-307.63629	155.95998	1354.54401	-286.00929	170.59357	1418.28887	-359.77182	206.83085	1477.67038	-474.44694	241.11518	1484.13768	-457.57110	39.34719	1399.69376	-799.55740	216.16225	1313.34738	-918.37454	184.56163	1380.76480	-935.18760	216.80086	1447.54672	-858.45322	248.89414	1499.92994	-752.51404	286.96620	1499.31493	-766.26609	-262.46199	873.62056	-502.70742	-243.87340	864.64615	-709.18395	-246.79341	893.44477	-525.26570	-234.42801	880.67197	-669.34599	
207	2.06000000	-192.51941	527.92285	-425.92636	-157.51165	467.29974	-418.12193	-222.61074	142.38015	-417.35856	-280.74433	142.38100	-465.72187	-102.53348	52.57573	-435.10930	-152.14812	49.46502	-387.68161	-107.39704	525.85518	-771.26432	-78.08000	438.71347	-764.72522	-185.17118	155.88394	-796.85465	-250.40137	150.06885	-753.71793	-122.25121	54.31293	-823.03848	-68.90553	47.98288	-771.46113	-176.57100	356.47793	-404.49761	-229.18382	484.48300	-397.71800	-257.58030	371.05009	-392.30460	-148.77375	471.29163	-813.59542	-172.83627	349.28843	-825.14506	-201.48400	789.08610	-401.13901	-174.60955	678.14722	-404.97263	-228.90221	642.09500	-407.83015	-306.77426	760.79783	-430.36202	-275.32965	647.84932	-437.28860	-153.28453	807.47043	-794.90756	-103.93221	678.84730	-783.77993	-258.52974	769.10564	-795.69862	-212.28552	638.26116	-769.53312	-156.49952	963.77882	-490.23817	-337.94300	1035.72728	-584.35697	-137.51195	951.96352	-708.87393	-330.51500	1028.70301	-665.75378	-92.08380	1423.65496	-629.40238	-43.45875	1427.29321	-522.77318	-24.72192	1419.22681	-725.06330	28.50760	1363.91212	-587.44099	30.96451	1369.50046	-644.93403	26.45383	1430.72013	-444.07567	165.14482	1317.93771	-308.70742	150.04389	1389.92102	-288.16309	165.17679	1451.98790	-363.81469	201.17477	1508.27511	-479.90959	235.60935	1515.05178	-463.51290	30.58367	1432.21780	-801.46787	208.05198	1347.89631	-920.94392	176.29777	1415.59819	-936.26722	209.11846	1481.12586	-859.39128	241.99950	1532.15788	-752.48510	279.87775	1531.93133	-766.48934	-253.23902	897.21903	-500.89738	-233.63213	887.13017	-707.22991	-237.81396	916.30246	-523.80083	-224.67898	903.88328	-667.72351	
